<svg width="179" height="81" viewBox="0 0 179 81" fill="none" xmlns="http://www.w3.org/2000/svg">
<g clip-path="url(#clip0_14_393)">
<path d="M99.7481 7.8589C98.0096 7.16151 95.6293 6.79163 92.4723 6.72692L80.309 6.48438L79.7295 35.5859L92.762 35.8386C95.4945 35.8386 97.6032 35.5617 99.2189 34.9876C104.509 33.0673 107.495 28.303 107.632 21.5698C107.764 14.8629 104.968 9.99546 99.7481 7.8589Z" fill="#E52421"/>
<path d="M12.4986 48.1004C7.76001 48.1004 4.37561 45.513 2.70556 40.6173L2.12205 38.9052L6.87469 37.4155C4.50641 36.9223 1.67939 35.5376 0.472113 31.6566C-1.36899 25.732 2.26896 20.3875 9.73995 18.0428C11.5971 17.4606 13.3416 17.1655 14.9313 17.1655C19.3519 17.1655 22.6277 19.4699 24.1548 23.6561L24.7826 25.3743L20.1869 26.8681C23.1206 27.1187 26.2293 28.287 27.6298 32.7866C28.6982 36.2229 28.1831 39.4228 26.1388 42.0404C24.4083 44.2538 21.5692 46.0265 17.9273 47.1686C15.9614 47.7871 14.1344 48.1004 12.4986 48.1004ZM13.1344 37.5165C13.6596 38.887 14.2512 38.887 14.6133 38.887C14.9373 38.887 15.3357 38.8142 15.8005 38.6687C16.7683 38.3635 17.6698 37.8217 17.5269 37.2861C17.4766 37.2801 17.2553 37.2234 16.7985 37.2234C16.5852 37.2234 16.3478 37.2356 16.0862 37.2598L13.1344 37.5165ZM12.8949 26.3465C12.6334 26.3465 12.3135 26.4071 11.9432 26.5224C11.1746 26.7649 10.8607 27.1045 10.7621 27.2379C10.4945 27.25 10.6917 27.3471 11.3134 27.3471C11.5589 27.3471 11.8326 27.3329 12.1384 27.3046L13.8588 27.1429C13.5267 26.3465 13.1766 26.3465 12.8949 26.3465Z" fill="#E52421"/>
<path d="M23.8652 13.4143L47.1878 8.63379L49.0832 17.9502L47.6767 18.2393L49.4877 27.1515L38.6181 29.381L38.8153 30.3533L51.3851 27.774L53.2785 37.0925L29.6582 41.9337L23.8652 13.4143Z" fill="#E52421"/>
<path d="M50.001 9.14877L63.4219 7.88544L67.0678 15.9365L66.2931 7.61457L76.8387 6.62207L79.541 35.5821L66.1241 36.8455L62.4802 28.8712L63.2488 37.1163L52.7033 38.1088L50.001 9.14877Z" fill="#E52421"/>
<path d="M138.427 40.8821L139.52 34.8847L137.027 40.6254L126.28 38.6485L125.974 32.3944L124.882 38.3897L114.759 36.5301L119.972 7.91162L134.224 10.5293L134.838 22.1642L139.514 11.5036L153.766 14.1233L148.552 42.7437L138.427 40.8821Z" fill="#E52421"/>
<path d="M147.615 43.0831L156.308 15.3379L179 22.5117L176.159 31.5775L174.793 31.1449L172.077 39.8166L161.503 36.4732L161.207 37.4172L173.437 41.2821L170.596 50.3479L147.615 43.0831Z" fill="#E52421"/>
<path d="M4.36328 31.7675L11.3896 29.5642C12.3736 32.4729 14.2307 32.7236 16.3214 32.0686C18.8788 31.2662 19.5991 29.7684 19.1947 28.4645C18.9351 27.6317 18.2671 27.0071 15.923 27.2275L12.4198 27.5327C7.45592 27.9774 3.52827 27.3023 2.14392 22.8512C0.524141 17.6381 3.95886 13.4216 10.2628 11.4426C16.1362 9.6012 20.6494 10.8868 22.5106 15.9826L15.5064 18.2607C14.6191 16.0352 12.8625 16.11 11.4198 16.5627C9.51028 17.1631 8.62496 18.5133 8.99719 19.708C9.26682 20.5751 10.1441 20.9754 12.2971 20.7773L15.9088 20.4377C21.744 19.8778 24.6394 20.7975 25.9574 25.0322C27.8589 31.1489 23.7119 35.232 17.4058 37.2089C11.786 38.9736 6.61486 38.3712 4.36328 31.7675Z" fill="#F6E81D"/>
<path d="M37.4491 25.1497L50.0188 22.5704L51.212 28.4405L31.0243 32.5782L25.9316 7.50725L45.8215 3.43018L47.0147 9.29819L34.7387 11.8148L35.3726 14.9337L46.2441 12.7062L47.4211 18.4994L36.5496 20.7289L37.4491 25.1497Z" fill="#F6E81D"/>
<path d="M54.2845 27.913L51.9082 2.45799L62.3431 1.47563L66.971 11.6916L69.8423 18.1155L69.9148 18.071C69.5465 14.948 69.2206 11.8594 69.1743 11.3702L68.2004 0.923798L75.2569 0.258789L77.6332 25.7138L67.1983 26.6962L62.5805 16.5934L59.7092 10.1695L59.6367 10.214C60.005 13.337 60.3309 16.4256 60.3772 16.9148L61.341 27.248L54.2845 27.913Z" fill="#F6E81D"/>
<path d="M81.5166 25.5824L82.0257 0L92.4385 0.208188C95.4184 0.268835 97.6016 0.614463 99.0986 1.21481C103.479 3.00778 106 7.15357 105.879 13.2561C105.757 19.3585 103.073 23.4376 98.6237 25.0527C97.1046 25.5924 94.9093 25.8512 91.9294 25.7905L81.5166 25.5824ZM89.4061 19.8255L90.7643 19.8539C92.2352 19.8822 93.4465 19.7548 94.2071 19.4678C96.676 18.6451 97.8893 16.4317 97.9577 13.058C98.0221 9.76119 96.8973 7.53972 94.4627 6.58162C93.7141 6.26224 92.5089 6.1248 91.038 6.09445L89.6798 6.06817L89.4061 19.8255Z" fill="#F6E81D"/>
<path d="M115.797 26.8355L120.38 1.67969L131.548 3.73139L132.123 14.6629C132.164 15.2855 132.298 18.9684 132.385 21.6427L132.459 21.6568C133.485 19.1867 134.91 15.7908 135.166 15.2208L139.56 5.20497L150.727 7.25866L146.144 32.4165L139.466 31.1875L141.991 17.323L143.077 11.7845L143.011 11.7339C142.063 13.9857 140.916 16.7025 140.659 17.2704L134.976 30.3628L126.962 28.8892L126.264 14.6245C126.226 13.9999 126.111 11.0527 126.019 8.60892L125.938 8.63318L125 14.2L122.473 28.0625L115.797 26.8355Z" fill="#F6E81D"/>
<path d="M159.01 30.2882L171.24 34.1531L169.451 39.8614L149.812 33.6538L157.453 9.26611L176.803 15.3828L175.014 21.0911L163.074 17.3152L162.123 20.3513L172.696 23.6946L170.932 29.3302L160.358 25.9868L159.01 30.2882Z" fill="#F6E81D"/>
<path d="M5.29927 80.4449L3.55273 52.2469L15.7321 47.6523L32.8936 70.0409L33.5938 71.9349L31.9861 72.6222L23.5291 75.814L20.1165 71.1062L15.4746 72.8567L15.9877 78.656L6.02767 82.4137L5.29927 80.4449ZM14.3337 63.4513L14.8085 63.2734L14.2532 62.5154L14.3337 63.4513Z" fill="#E52421"/>
<path d="M24.8506 44.5174L37.8308 41.4368C39.8832 40.9497 41.3399 40.7334 42.5513 40.7334L43.014 40.7435C47.7083 40.8951 51.0907 43.8362 52.2597 48.8168C53.4388 53.8197 51.7285 57.9857 47.5695 60.2456C46.4588 60.8763 44.9819 61.3897 42.6559 61.9415L40.6518 62.4186L42.4909 70.2392L31.5148 72.8447L24.8506 44.5174ZM38.525 53.3851L39.1347 53.2416C40.0824 53.0152 40.7283 52.7787 40.9315 52.6735C41.2414 52.4977 41.505 52.3481 41.2877 51.4223C41.0925 50.5956 40.8309 50.5228 40.3943 50.5006C40.1066 50.5026 39.4184 50.5976 38.5592 50.8017L37.9516 50.9452L38.525 53.3851Z" fill="#E52421"/>
<path d="M51.9023 38.3058L65.1683 36.8565C66.3675 36.7251 67.4199 36.6523 68.3374 36.6523C69.108 36.6523 69.7922 36.7029 70.3998 36.81C75.0438 37.5418 78.0398 40.8831 78.5932 45.9729C79.1486 51.0869 76.9392 55.0124 72.5327 56.7406C71.3536 57.2278 69.7741 57.5613 67.44 57.816L65.3916 58.0404L66.2569 66.0369L55.0413 67.2618L51.9023 38.3058ZM64.3896 48.8088L65.0134 48.7401C65.9852 48.635 66.6553 48.4773 66.8685 48.4005C67.1985 48.2631 67.4782 48.1478 67.3756 47.1998C67.2831 46.3327 67.0215 46.2458 66.5688 46.1669C66.5064 46.1609 66.3534 46.1568 66.1724 46.1568C65.772 46.1568 65.275 46.1851 64.7397 46.2438L64.12 46.3105L64.3896 48.8088Z" fill="#E52421"/>
<path d="M93.8588 64.8765L92.406 59.241L87.4501 59.1581L85.8103 64.7411L75.1621 64.5632L75.2164 62.5317L75.2969 62.2124L83.8887 35.5991L96.8951 35.8154L104.678 62.9663L104.626 64.9816L102.887 65.0281L93.8588 64.8765ZM90.3295 49.9993L90.09 49.0877L89.8224 49.9912L90.3295 49.9993Z" fill="#E52421"/>
<path d="M128.117 68.2622L118.867 66.9969L118.509 65.9902C117.99 64.5328 118.129 62.8288 118.308 61.5089L118.7 58.6143C118.781 58.02 118.723 57.7956 118.708 57.7511C118.682 57.7511 118.471 57.642 117.869 57.5591L115.789 57.2741L114.551 66.4066L103.372 64.8764L107.284 36.0215L120.839 37.8751C123.095 38.1823 124.437 38.439 125.471 38.7604C130.021 40.1612 132.268 43.6481 131.634 48.3235C131.343 50.4803 130.524 52.1014 129.157 53.2152C129.976 54.1855 130.296 55.5094 130.125 57.2033L129.54 62.6509C129.407 63.8759 129.54 64.8259 129.958 65.6385L130.439 66.5744L129.236 68.337L128.117 68.2622ZM118.358 48.3296C118.863 48.4003 119.32 48.4488 119.658 48.4488C119.986 48.4205 120.123 48.4044 120.195 47.8687C120.268 47.335 120.141 47.2825 120.004 47.2279C119.924 47.1915 119.632 47.0824 118.546 46.9328L117.214 46.7508L117.024 48.1476L118.358 48.3296Z" fill="#E52421"/>
<path d="M128.608 68.4037L136.092 40.2744L159.096 46.4517L156.653 55.6408L155.265 55.2689L152.929 64.0618L142.206 61.1834L141.951 62.1415L154.35 65.4686L151.907 74.6598L128.608 68.4037Z" fill="#E52421"/>
<path d="M151.313 74.5933L161.933 47.5273L172.423 51.6792L165.352 69.6916L176.089 73.9445L172.537 83.0002L151.313 74.5933Z" fill="#E52421"/>
<path d="M15.1346 43.6191L31.3442 64.7646L31.3704 64.8353L24.161 67.5561L20.7484 62.8483L13.6114 65.5408L14.1245 71.3401L7.05794 74.0063L7.03178 73.9355L5.38184 47.298L15.1346 43.6191ZM11.8427 50.1279C12.1425 52.7679 12.4222 55.4563 12.4725 56.1273L12.7864 59.7759L17.5934 57.9627L15.4525 55.0439C15.052 54.5062 13.4866 52.2605 11.9835 50.0734L11.8427 50.1279Z" fill="#F6E81D"/>
<path d="M32.8173 64.5864L26.96 39.6852L38.2339 37.0089C40.1796 36.5481 41.7109 36.3014 42.9282 36.3621C46.8337 36.4874 49.5501 38.8019 50.5561 43.0811C51.5723 47.3967 50.1758 50.6895 46.7371 52.5572C45.6767 53.1596 44.1978 53.6265 42.2521 54.0894L38.5437 54.9708L40.3828 62.7914L32.8173 64.5864ZM37.2238 49.3635L39.5378 48.8137C40.4915 48.5873 41.3185 48.3124 41.733 48.0981C42.9322 47.423 43.3487 46.3901 42.9926 44.8781C42.6445 43.4025 41.8135 42.6647 40.4412 42.6C39.9744 42.594 39.1132 42.7213 38.1574 42.9477L35.8435 43.4975L37.2238 49.3635Z" fill="#F6E81D"/>
<path d="M56.5926 59.1813L53.834 33.7263L65.3574 32.467C67.3474 32.2487 68.8988 32.1941 70.1 32.4043C73.9633 33.0127 76.3759 35.6486 76.8507 40.0228C77.3296 44.4354 75.5368 47.5321 71.8948 48.9613C70.766 49.4262 69.2408 49.7092 67.2508 49.9255L63.46 50.3419L64.3252 58.3363L56.5926 59.1813ZM62.8382 44.6093L65.2025 44.3506C66.1784 44.2434 67.0335 44.0737 67.4721 43.9119C68.7458 43.3904 69.2851 42.4161 69.118 40.8698C68.9551 39.3618 68.2186 38.525 66.8625 38.2926C66.3997 38.2279 65.5284 38.2481 64.5525 38.3532L62.1883 38.6119L62.8382 44.6093Z" fill="#F6E81D"/>
<path d="M95.5691 31.414L102.919 57.053L102.917 57.1278L95.221 56.9984L93.7682 51.3628L86.1463 51.2355L84.5064 56.8185L76.9609 56.6932L76.963 56.6164L85.1563 31.2402L95.5691 31.414ZM90.1303 36.2532C89.4462 38.8183 88.7239 41.4218 88.5247 42.0626L87.4864 45.5717L92.6173 45.6586L91.6938 42.1556C91.5147 41.5067 90.8809 38.8426 90.2813 36.2552L90.1303 36.2532Z" fill="#F6E81D"/>
<path d="M104.344 57.2309L107.783 31.8628L119.604 33.4799C121.887 33.7912 123.075 34.0297 123.952 34.3026C127.536 35.4062 129.443 37.9248 128.898 41.9473C128.515 44.7651 127.165 46.3034 124.338 46.9118L124.36 47.0311C126.922 47.5344 127.602 48.6987 127.383 50.8878L126.797 56.3213C126.642 57.7544 126.767 59.0743 127.401 60.3074L127.352 60.3781L119.159 59.2583C118.801 58.2517 118.861 56.958 119.044 55.6057L119.437 52.7111C119.712 50.6817 119.012 49.9358 117.105 49.675L113.29 49.1535L112.052 58.286L104.344 57.2309ZM114.052 43.5139L117.121 43.9343C117.944 44.0475 118.66 44.1061 119.048 44.0455C120.095 43.9202 120.763 43.2067 120.932 41.9676C121.099 40.7265 120.646 39.8613 119.67 39.4591C119.312 39.2953 118.606 39.1619 117.783 39.0487L114.714 38.6283L114.052 43.5139Z" fill="#F6E81D"/>
<path d="M138.805 57.249L151.204 60.5762L149.665 66.3654L129.753 61.0189L136.331 36.2896L155.951 41.5572L154.412 47.3464L142.305 44.096L141.486 47.1725L152.206 50.0509L150.687 55.7674L139.964 52.8889L138.805 57.249Z" fill="#F6E81D"/>
<path d="M152.585 67.4609L161.921 43.6694L169.149 46.5317L162.08 64.544L172.817 68.797L170.549 74.576L152.585 67.4609Z" fill="#F6E81D"/>
</g>
<defs>
<clipPath id="clip0_14_393">
<rect width="179" height="81" fill="white"/>
</clipPath>
</defs>
</svg>
