<svg width="1000" height="935" viewBox="0 0 1000 935" fill="none" xmlns="http://www.w3.org/2000/svg">
<path d="M207.434 380.411V934.223H796.125V380.411L901.478 418.138L999 242.314L813.922 92.1155L588.98 1C578.065 9.06752 544.988 25.2026 500 25.2026C455.012 25.2026 422.884 9.06752 412.444 1L190.35 92.1155L1 242.314L99.9458 418.138L207.434 380.411Z" fill="white" stroke="black"/>
<path d="M412.443 1C418.035 45.6087 452.306 116.318 502.567 116.318C562.956 116.318 583.202 46.3205 588.98 1.71184" stroke="black"/>
<path d="M131.267 408.172L27.3379 224.518" stroke="black" stroke-dasharray="2 2"/>
<path d="M871.581 408.172L975.51 224.518" stroke="black" stroke-dasharray="2 2"/>
<path fill-rule="evenodd" clip-rule="evenodd" d="M583.561 33.45C572.338 40.8522 540.116 55.5997 500.712 55.5997C461.315 55.5997 430.516 41.8053 419.999 34.8738L420.549 34.0388C430.913 40.8696 461.522 54.5997 500.712 54.5997C539.895 54.5997 571.929 39.9244 583.01 32.6152L583.561 33.45Z" fill="black"/>
<path d="M384.682 13.813C391.8 58.6589 425.257 148.351 502.135 148.351C579.014 148.351 612.945 58.6589 620.301 13.813" stroke="black" stroke-dasharray="2 2"/>
</svg>
